HIERARCHY
ROOT Hips
{
	OFFSET 0.000000 0.000000 0.000000 
	CHANNELS 6 Xposition Yposition Zposition Zrotation Xrotation Yrotation
	JOINT Spine
	{
		OFFSET -0.000000 8.061080 0.000000 
		CHANNELS 3 Zrotation Xrotation Yrotation
		JOINT Spine1
		{
			OFFSET -0.000000 20.532700 0.000000 
			CHANNELS 3 Zrotation Xrotation Yrotation
			JOINT Neck
			{
				OFFSET -0.000000 22.498800 0.000000 
				CHANNELS 3 Zrotation Xrotation Yrotation
				JOINT Head
				{
					OFFSET -0.000000 15.237400 1.966120 
					CHANNELS 3 Zrotation Xrotation Yrotation
					End Site
					{
						OFFSET -0.000000 19.661222 0.000000 
					}
				}
			}
			JOINT LeftShoulder
			{
				OFFSET 3.894670 16.042299 -0.398189 
				CHANNELS 3 Zrotation Xrotation Yrotation
				JOINT LeftArm
				{
					OFFSET 19.709600 0.000000 0.000000 
					CHANNELS 3 Zrotation Xrotation Yrotation
					JOINT LeftForeArm
					{
						OFFSET 25.566900 0.000000 0.000000 
						CHANNELS 3 Zrotation Xrotation Yrotation
						JOINT LeftHand
						{
							OFFSET 25.401899 0.000000 0.000000 
							CHANNELS 3 Zrotation Xrotation Yrotation
							End Site
							{
								OFFSET 14.745918 0.000000 0.000000 
							}
						}
					}
				}
			}
			JOINT RightShoulder
			{
				OFFSET -3.930780 16.042299 -0.398189 
				CHANNELS 3 Zrotation Xrotation Yrotation
				JOINT RightArm
				{
					OFFSET -19.709600 0.000000 0.000000 
					CHANNELS 3 Zrotation Xrotation Yrotation
					JOINT RightForeArm
					{
						OFFSET -25.566900 0.000000 0.000000 
						CHANNELS 3 Zrotation Xrotation Yrotation
						JOINT RightHand
						{
							OFFSET -25.401899 0.000000 0.000000 
							CHANNELS 3 Zrotation Xrotation Yrotation
							End Site
							{
								OFFSET -14.745918 0.000000 0.000000 
							}
						}
					}
				}
			}
		}
	}
	JOINT LeftUpLeg
	{
		OFFSET 9.830590 0.000000 0.000000 
		CHANNELS 3 Zrotation Xrotation Yrotation
		JOINT LeftLeg
		{
			OFFSET -0.000000 -46.474800 0.000000 
			CHANNELS 3 Zrotation Xrotation Yrotation
			JOINT LeftFoot
			{
				OFFSET -0.000000 -30.290499 0.000000 
				CHANNELS 3 Zrotation Xrotation Yrotation
				JOINT LeftToeBase
				{
					OFFSET -0.000000 -6.389880 14.745900 
					CHANNELS 3 Zrotation Xrotation Yrotation
					End Site
					{
						OFFSET -0.000000 0.000000 3.932244 
					}
				}
			}
		}
	}
	JOINT RightUpLeg
	{
		OFFSET -9.830590 0.000000 0.000000 
		CHANNELS 3 Zrotation Xrotation Yrotation
		JOINT RightLeg
		{
			OFFSET -0.000000 -46.474800 0.000000 
			CHANNELS 3 Zrotation Xrotation Yrotation
			JOINT RightFoot
			{
				OFFSET -0.000000 -30.290499 0.000000 
				CHANNELS 3 Zrotation Xrotation Yrotation
				JOINT RightToeBase
				{
					OFFSET -0.000000 -6.389880 14.745900 
					CHANNELS 3 Zrotation Xrotation Yrotation
					End Site
					{
						OFFSET -0.000000 0.000000 3.932244 
					}
				}
			}
		}
	}
}
MOTION
Frames: 6
Frame Time: 0.010000
0.000000 83.191902 0.000000 -0.989810 6.727116 7.722379 -0.533396 -13.387442 -1.302166 2.267215 3.058684 -0.476050 0.902304 4.368276 2.522470 2.291516 10.905364 2.252558 5.338387 8.736165 -5.469007 -67.802460 32.855572 -29.094439 -11.253215 -4.622265 -2.242110 2.748180 -4.723184 4.991828 -9.466649 9.476798 -8.016094 42.359245 58.869793 51.967541 3.954898 -11.149181 6.569209 9.157405 -11.130545 3.068369 5.956862 -1.750200 -4.124312 3.398247 7.355440 1.080081 -7.456540 -3.093769 9.534366 0.000000 0.000000 0.000000 -6.825398 -3.399146 -2.970205 8.544502 3.104371 -29.552267 0.000000 0.000000 0.000000 0.000000 0.000000 0.000000 
-0.002581 83.190712 -0.001686 -0.986832 6.722134 7.727437 -0.552216 -13.381656 -1.311625 2.289414 3.057969 -0.479015 0.898909 4.378406 2.526273 2.292171 10.887766 2.256172 5.341895 8.748083 -5.460801 -67.830833 32.828575 -29.087149 -11.246451 -4.611447 -2.246534 2.771747 -4.711627 4.992084 -9.463890 9.472126 -8.013882 42.308437 58.888355 52.004395 3.947703 -11.168227 6.570688 9.142013 -11.149559 3.069429 5.955388 -1.747143 -4.115505 3.398247 7.355440 1.080081 -7.456540 -3.093769 9.534366 0.000000 0.000000 0.000000 -6.826476 -3.401661 -2.971405 8.543605 3.114728 -29.587612 0.000000 0.000000 0.000000 0.000000 0.000000 0.000000 
-0.002322 83.190117 -0.000145 -0.989354 6.708413 7.746774 -0.534804 -13.381400 -1.332260 2.281370 3.088098 -0.486949 0.892023 4.331855 2.525044 2.284809 10.940262 2.253968 5.318383 8.842435 -5.333133 -67.691505 32.802818 -29.296904 -11.312032 -4.595402 -2.227078 2.778326 -4.693192 5.053974 -9.466602 9.489806 -8.021810 42.315861 58.834122 52.032845 3.920598 -11.148587 6.546707 9.180583 -11.124440 3.096262 5.958642 -1.730548 -4.183935 3.398247 7.355440 1.080081 -7.456540 -3.093769 9.534366 0.000000 0.000000 0.000000 -6.847691 -3.431293 -2.860436 8.575885 3.209000 -29.494139 0.000000 0.000000 0.000000 0.000000 0.000000 0.000000 
-0.006131 83.189247 -0.004410 -0.981958 6.710919 7.735927 -0.567544 -13.373115 -1.321389 2.315585 3.057841 -0.482391 0.904339 4.382194 2.531065 2.264753 10.886538 2.268177 5.345425 8.815663 -5.418135 -67.786270 32.817497 -29.189533 -11.264744 -4.616027 -2.231667 2.751580 -4.716172 4.984218 -9.466208 9.477047 -8.009979 42.330826 58.867470 51.981270 3.939929 -11.170790 6.576460 9.093816 -11.152478 3.078090 5.953456 -1.741347 -4.118114 3.398247 7.355440 1.080081 -7.456540 -3.093769 9.534366 0.000000 0.000000 0.000000 -6.857154 -3.429581 -2.906864 8.613666 3.203157 -29.617250 0.000000 0.000000 0.000000 0.000000 0.000000 0.000000 
-0.005835 83.190353 -0.002968 -0.989746 6.698431 7.751628 -0.550682 -13.362537 -1.338628 2.305334 3.052880 -0.488469 0.888647 4.388661 2.547986 2.306660 10.903844 2.273427 5.308539 8.895763 -5.331880 -67.696716 32.780731 -29.305309 -11.295265 -4.609181 -2.207371 2.782955 -4.707917 4.912777 -9.413493 9.554705 -8.007268 42.303005 58.760429 52.008087 3.885076 -11.100962 6.536652 9.461626 -11.068878 3.072980 5.963052 -1.732227 -4.130502 3.398247 7.355440 1.080081 -7.456540 -3.093769 9.534366 0.000000 0.000000 0.000000 -6.831885 -3.450785 -3.003746 8.561329 3.323818 -29.231432 0.000000 0.000000 0.000000 0.000000 0.000000 0.000000 
-0.008897 83.188293 -0.002647 -0.987112 6.698268 7.756587 -0.548677 -13.388880 -1.335082 2.309236 3.103347 -0.488479 0.889598 4.361835 2.530967 2.291125 10.883055 2.259616 5.354199 8.814797 -5.380620 -67.800941 32.807297 -29.184036 -11.266792 -4.608425 -2.270216 2.760847 -4.711061 5.023665 -9.471911 9.507344 -8.030393 42.335327 58.792301 52.023552 3.914299 -11.141610 6.558517 9.198058 -11.117755 3.087224 5.962698 -1.726332 -4.181603 3.398247 7.355440 1.080081 -7.456540 -3.093769 9.534366 0.000000 0.000000 0.000000 -6.843986 -3.456059 -3.016743 8.560268 3.309861 -29.335785 0.000000 0.000000 0.000000 0.000000 0.000000 0.000000 
